HIERARCHY
ROOT root
{
	OFFSET 0.000000 0.054209 0.736571
	CHANNELS 6 Xposition Yposition Zposition Xrotation Yrotation Zrotation
	JOINT spine04
	{
		OFFSET 0.000000 -0.030951 0.078753
		CHANNELS 6 Xposition Yposition Zposition Xrotation Yrotation Zrotation
		JOINT spine02
		{
			OFFSET 0.000000 -0.000238 0.104623
			CHANNELS 6 Xposition Yposition Zposition Xrotation Yrotation Zrotation
			JOINT spine01
			{
				OFFSET 0.000000 0.017421 0.109292
				CHANNELS 3 Xrotation Yrotation Zrotation
				JOINT neck01
				{
					OFFSET 0.000000 -0.049753 0.167208
					CHANNELS 6 Xposition Yposition Zposition Xrotation Yrotation Zrotation
					JOINT neck02
					{
						OFFSET 0.000000 0.005512 0.021216
						CHANNELS 3 Xrotation Yrotation Zrotation
						JOINT jaw
						{
							OFFSET 0.000000 -0.043572 0.063271
							CHANNELS 6 Xposition Yposition Zposition Xrotation Yrotation Zrotation
							End Site
							{
								OFFSET 0.000000 -0.008973 0.006556
							}
						}
						JOINT eye.L
						{
							OFFSET 0.023674 -0.098122 0.090003
							CHANNELS 3 Xrotation Yrotation Zrotation
							End Site
							{
								OFFSET 0.001819 -0.030370 -0.004421
							}
						}
						JOINT orbicularis03.L
						{
							OFFSET 0.023674 -0.098122 0.090003
							CHANNELS 3 Xrotation Yrotation Zrotation
							End Site
							{
								OFFSET 0.001761 -0.029014 0.005250
							}
						}
						JOINT eye.R
						{
							OFFSET -0.023674 -0.098122 0.090003
							CHANNELS 3 Xrotation Yrotation Zrotation
							End Site
							{
								OFFSET -0.001819 -0.030370 -0.004420
							}
						}
						JOINT orbicularis03.R
						{
							OFFSET -0.023674 -0.098122 0.090003
							CHANNELS 3 Xrotation Yrotation Zrotation
							End Site
							{
								OFFSET -0.001761 -0.029014 0.005250
							}
						}
						End Site
						{
							OFFSET 0.000000 0.005512 0.021217
						}
					}
				}
				JOINT clavicle.R
				{
					OFFSET -0.018367 -0.058464 0.107155
					CHANNELS 6 Xposition Yposition Zposition Xrotation Yrotation Zrotation
					JOINT upperarm01.R
					{
						OFFSET -0.132020 0.003642 -0.024313
						CHANNELS 6 Xposition Yposition Zposition Xrotation Yrotation Zrotation
						JOINT lowerarm01.R
						{
							OFFSET -0.133637 0.001770 -0.153088
							CHANNELS 6 Xposition Yposition Zposition Xrotation Yrotation Zrotation
							JOINT wrist.R
							{
								OFFSET -0.108575 -0.154814 -0.103768
								CHANNELS 6 Xposition Yposition Zposition Xrotation Yrotation Zrotation
								JOINT finger2-1.R
								{
									OFFSET -0.024321 -0.084906 -0.032804
									CHANNELS 3 Xrotation Yrotation Zrotation
									JOINT finger2-2.R
									{
										OFFSET -0.002927 -0.018838 -0.012652
										CHANNELS 3 Xrotation Yrotation Zrotation
										JOINT finger2-3.R
										{
											OFFSET 0.000460 -0.015088 -0.013862
											CHANNELS 3 Xrotation Yrotation Zrotation
											End Site
											{
												OFFSET 0.003042 -0.016084 -0.016987
											}
										}
									}
								}
								JOINT finger3-1.R
								{
									OFFSET -0.038828 -0.069770 -0.043127
									CHANNELS 3 Xrotation Yrotation Zrotation
									JOINT finger3-2.R
									{
										OFFSET -0.006387 -0.018854 -0.022184
										CHANNELS 3 Xrotation Yrotation Zrotation
										JOINT finger3-3.R
										{
											OFFSET -0.002379 -0.015757 -0.018305
											CHANNELS 3 Xrotation Yrotation Zrotation
											End Site
											{
												OFFSET 0.000156 -0.013802 -0.019326
											}
										}
									}
								}
								JOINT finger4-1.R
								{
									OFFSET -0.045586 -0.054771 -0.050312
									CHANNELS 3 Xrotation Yrotation Zrotation
									JOINT finger4-2.R
									{
										OFFSET -0.008217 -0.013209 -0.021152
										CHANNELS 3 Xrotation Yrotation Zrotation
										JOINT finger4-3.R
										{
											OFFSET -0.003839 -0.011894 -0.018031
											CHANNELS 3 Xrotation Yrotation Zrotation
											End Site
											{
												OFFSET -0.002024 -0.010563 -0.020894
											}
										}
									}
								}
								JOINT finger5-1.R
								{
									OFFSET -0.046820 -0.037780 -0.058682
									CHANNELS 3 Xrotation Yrotation Zrotation
									JOINT finger5-2.R
									{
										OFFSET -0.005233 -0.007322 -0.016539
										CHANNELS 3 Xrotation Yrotation Zrotation
										JOINT finger5-3.R
										{
											OFFSET -0.001524 -0.005483 -0.012548
											CHANNELS 3 Xrotation Yrotation Zrotation
											End Site
											{
												OFFSET -0.002248 -0.006725 -0.016024
											}
										}
									}
								}
								JOINT finger1-1.R
								{
									OFFSET -0.000927 -0.039280 -0.005363
									CHANNELS 3 Xrotation Yrotation Zrotation
									JOINT finger1-2.R
									{
										OFFSET 0.018386 -0.018805 -0.006895
										CHANNELS 3 Xrotation Yrotation Zrotation
										JOINT finger1-3.R
										{
											OFFSET 0.010991 -0.028095 -0.011249
											CHANNELS 3 Xrotation Yrotation Zrotation
											End Site
											{
												OFFSET 0.004840 -0.019091 -0.014527
											}
										}
									}
								}
							}
						}
					}
				}
				JOINT clavicle.L
				{
					OFFSET 0.018367 -0.058464 0.107155
					CHANNELS 6 Xposition Yposition Zposition Xrotation Yrotation Zrotation
					JOINT upperarm01.L
					{
						OFFSET 0.132020 0.003642 -0.024313
						CHANNELS 6 Xposition Yposition Zposition Xrotation Yrotation Zrotation
						JOINT lowerarm01.L
						{
							OFFSET 0.133637 0.001770 -0.153088
							CHANNELS 6 Xposition Yposition Zposition Xrotation Yrotation Zrotation
							JOINT wrist.L
							{
								OFFSET 0.108574 -0.154814 -0.103768
								CHANNELS 6 Xposition Yposition Zposition Xrotation Yrotation Zrotation
								JOINT finger2-1.L
								{
									OFFSET 0.024321 -0.084906 -0.032804
									CHANNELS 3 Xrotation Yrotation Zrotation
									JOINT finger2-2.L
									{
										OFFSET 0.002927 -0.018838 -0.012653
										CHANNELS 3 Xrotation Yrotation Zrotation
										JOINT finger2-3.L
										{
											OFFSET -0.000460 -0.015088 -0.013862
											CHANNELS 3 Xrotation Yrotation Zrotation
											End Site
											{
												OFFSET -0.003042 -0.016083 -0.016987
											}
										}
									}
								}
								JOINT finger3-1.L
								{
									OFFSET 0.038828 -0.069770 -0.043127
									CHANNELS 3 Xrotation Yrotation Zrotation
									JOINT finger3-2.L
									{
										OFFSET 0.006387 -0.018854 -0.022184
										CHANNELS 3 Xrotation Yrotation Zrotation
										JOINT finger3-3.L
										{
											OFFSET 0.002379 -0.015757 -0.018305
											CHANNELS 3 Xrotation Yrotation Zrotation
											End Site
											{
												OFFSET -0.000156 -0.013802 -0.019326
											}
										}
									}
								}
								JOINT finger4-1.L
								{
									OFFSET 0.045586 -0.054771 -0.050312
									CHANNELS 3 Xrotation Yrotation Zrotation
									JOINT finger4-2.L
									{
										OFFSET 0.008217 -0.013209 -0.021152
										CHANNELS 3 Xrotation Yrotation Zrotation
										JOINT finger4-3.L
										{
											OFFSET 0.003838 -0.011894 -0.018031
											CHANNELS 3 Xrotation Yrotation Zrotation
											End Site
											{
												OFFSET 0.002024 -0.010563 -0.020894
											}
										}
									}
								}
								JOINT finger5-1.L
								{
									OFFSET 0.046820 -0.037780 -0.058682
									CHANNELS 3 Xrotation Yrotation Zrotation
									JOINT finger5-2.L
									{
										OFFSET 0.005233 -0.007322 -0.016539
										CHANNELS 3 Xrotation Yrotation Zrotation
										JOINT finger5-3.L
										{
											OFFSET 0.001524 -0.005484 -0.012548
											CHANNELS 3 Xrotation Yrotation Zrotation
											End Site
											{
												OFFSET 0.002248 -0.006725 -0.016024
											}
										}
									}
								}
								JOINT finger1-1.L
								{
									OFFSET 0.000927 -0.039280 -0.005363
									CHANNELS 3 Xrotation Yrotation Zrotation
									JOINT finger1-2.L
									{
										OFFSET -0.018386 -0.018805 -0.006895
										CHANNELS 3 Xrotation Yrotation Zrotation
										JOINT finger1-3.L
										{
											OFFSET -0.010991 -0.028095 -0.011249
											CHANNELS 3 Xrotation Yrotation Zrotation
											End Site
											{
												OFFSET -0.004840 -0.019091 -0.014527
											}
										}
									}
								}
							}
						}
					}
				}
			}
		}
	}
	JOINT upperleg01.R
	{
		OFFSET -0.087495 -0.048056 0.004242
		CHANNELS 6 Xposition Yposition Zposition Xrotation Yrotation Zrotation
		JOINT lowerleg01.R
		{
			OFFSET -0.034522 -0.027831 -0.333803
			CHANNELS 6 Xposition Yposition Zposition Xrotation Yrotation Zrotation
			JOINT foot.R
			{
				OFFSET -0.037458 0.009412 -0.349633
				CHANNELS 3 Xrotation Yrotation Zrotation
				JOINT toe1-1.R
				{
					OFFSET -0.003290 -0.101211 -0.050981
					CHANNELS 6 Xposition Yposition Zposition Xrotation Yrotation Zrotation
					End Site
					{
						OFFSET 0.000524 -0.066142 0.003009
					}
				}
			}
		}
	}
	JOINT upperleg01.L
	{
		OFFSET 0.087495 -0.048056 0.004242
		CHANNELS 6 Xposition Yposition Zposition Xrotation Yrotation Zrotation
		JOINT lowerleg01.L
		{
			OFFSET 0.034522 -0.027831 -0.333803
			CHANNELS 6 Xposition Yposition Zposition Xrotation Yrotation Zrotation
			JOINT foot.L
			{
				OFFSET 0.037458 0.009412 -0.349633
				CHANNELS 3 Xrotation Yrotation Zrotation
				JOINT toe1-1.L
				{
					OFFSET 0.003290 -0.101211 -0.050981
					CHANNELS 6 Xposition Yposition Zposition Xrotation Yrotation Zrotation
					End Site
					{
						OFFSET -0.000524 -0.066142 0.003009
					}
				}
			}
		}
	}
}
MOTION
Frames: 6
Frame Time:	0.016667
0 0.0542 0.7366 0 0 0 0 -0.0506 0.0788 0 0 0 0 -0.0232 0.1046 0 0 0 0 0 0 0 -0.0498 0.1672 0 0 0 0 0 0 0 -0.0436 0.0633 0 0 0 0 0 0 0 0 0 0 0 0 0 0 0 -0.0184 -0.0585 0.1072 0 0 0 -0.1356 -0.0037 -0.0169 0 0 0 -0.1336 0.0018 -0.1531 0 0 0 -0.1086 -0.1548 -0.1038 0 0 0 0 0 0 0 0 0 0 0 0 0 0 0 0 0 0 0 0 0 0 0 0 0 0 0 0 0 0 0 0 0 0 0 0 0 0 0 0 0 0 0 0 0 0 0 0 0.0184 -0.0585 0.1072 0 0 0 0.1356 -0.0037 -0.0169 0 0 0 0.1336 0.0018 -0.1531 0 0 0 0.1086 -0.1548 -0.1038 0 0 0 0 0 0 0 0 0 0 0 0 0 0 0 0 0 0 0 0 0 0 0 0 0 0 0 0 0 0 0 0 0 0 0 0 0 0 0 0 0 0 0 0 0 0 0 0 -0.0875 -0.0481 0.0042 0 0 0 -0.0345 -0.0278 -0.3338 0 0 0 0 0 0 -0.0033 -0.1012 -0.051 0 0 0 0.0875 -0.0481 0.0042 0 0 0 0.0345 -0.0278 -0.3338 0 0 0 0 0 0 0.0033 -0.1012 -0.051 0 0 0 
0.3893 -0.0554 0.7491 1.2351 -1.9927 -85.7562 -0.0004 -0.0364 0.0732 2.4031 0.8258 1.1429 -0.0005 -0.0033 0.0979 1.7674 -0.7106 1.2583 0 0 0 0 -0.0422 0.161 15.5115 2.3564 8.6532 -9.5265 -2.8824 8.0423 0 -0.0436 0.0633 0 -0.0001 0 3.8657 -0.0065 -0.1926 0 0 0 3.8653 0.0096 0.2873 0 0 0.0001 -0.0184 -0.0573 0.1063 0.6679 -4.626 -3.9819 -0.1356 -0.0037 -0.0169 36.3154 0.9467 -0.6708 -0.1336 0.0016 -0.153 -27.3571 -22.3563 53.7257 -0.1085 -0.1548 -0.1037 -32.5003 15.3848 12.1685 37.998 -24.2306 28.0354 41.4498 -17.9342 35.0613 48.1496 -17.4382 40.1643 21.5834 -26.2462 28.0114 41.3046 -31.8818 38.6754 38.9192 -31.7045 37.3529 25.9728 -36.0572 33.7293 48.5523 -42.2714 43.3161 46.1391 -43.1304 44.016 3.4732 -30.6574 15.7761 23.9197 -36.8172 15.5794 28.4048 -40.7467 21.1481 -13.5872 -38.6782 -24.2253 16.0465 15.5162 -40.5498 10.5594 22.7 -51.9633 0.0184 -0.0573 0.1063 -0.3131 3.3028 -1.6499 0.1356 -0.0037 -0.0169 28.6835 31.0188 -7.5768 0.1336 0.0017 -0.1531 -0.1423 3.7764 -16.5067 0.1086 -0.1548 -0.1037 -9.5013 -60.2892 -5.5727 44.5099 24.1398 -34.3616 48.4972 17.1535 -42.0594 53.3343 16.4212 -45.541 -5.8256 3.2563 -1.3104 12.5198 16.3008 -7.8215 10.2751 15.271 -6.8048 -9.1498 2.7146 -3.6248 11.3079 17.493 -4.5022 7.8365 17.7294 -5.0827 -13.0379 7.9933 -3.8319 8.7545 16.7841 -0.5871 10.7679 21.7064 -3.7213 -9.0294 33.6512 21.3063 20.0308 -14.3956 39.8643 14.0503 -20.2544 51.6687 -0.0875 -0.0481 0.0042 3.9647 -3.2693 -25.3421 -0.0345 -0.0278 -0.3338 -6.2378 -0.2457 0.65 2.1188 -1.7756 -8.5377 -0.0033 -0.1012 -0.051 -0.5484 -0.0202 0.0748 0.0875 -0.0481 0.0042 -4.0618 -0.7316 -12.8835 0.0345 -0.0278 -0.334 -6.2378 0.2457 -0.65 9.881 -3.2795 -2.855 0.0033 -0.1012 -0.051 -3.9702 -0.0066 -0.2278 
0.3893 -0.0554 0.7491 1.2351 -1.9927 -85.7562 -0.0004 -0.0364 0.0732 2.4031 0.8258 1.1429 -0.0005 -0.0033 0.0979 1.7674 -0.7107 1.2583 0 0 0 0 -0.0422 0.161 15.5115 2.3564 8.6532 -9.5265 -2.8824 8.0423 0 -0.0436 0.0633 0 -0.0001 0 3.8657 -0.0065 -0.1926 0 0 0 3.8652 0.0096 0.2873 0 0 0.0001 -0.0184 -0.0573 0.1063 0.6679 -4.626 -3.9819 -0.1356 -0.0037 -0.0169 36.3154 0.9467 -0.6708 -0.1336 0.0016 -0.153 -27.3571 -22.3563 53.7257 -0.1085 -0.1548 -0.1037 -32.5003 15.3848 12.1685 37.998 -24.2306 28.0354 41.4498 -17.9343 35.0613 48.1496 -17.4382 40.1644 21.5834 -26.2462 28.0114 41.3046 -31.8818 38.6754 38.9192 -31.7045 37.3529 25.9728 -36.0572 33.7293 48.5523 -42.2714 43.3162 46.1391 -43.1304 44.016 3.4733 -30.6574 15.7761 23.9196 -36.8172 15.5794 28.4048 -40.7467 21.1481 -13.5872 -38.6783 -24.2253 16.0464 15.5163 -40.5498 10.5594 22.7 -51.9632 0.0184 -0.0573 0.1063 -0.3131 3.3028 -1.6499 0.1356 -0.0037 -0.0169 28.6835 31.0188 -7.5768 0.1336 0.0017 -0.1531 -0.1423 3.7765 -16.5067 0.1086 -0.1548 -0.1037 -9.5013 -60.2892 -5.5727 44.5099 24.1398 -34.3616 48.4972 17.1535 -42.0594 53.3343 16.4212 -45.541 -5.8256 3.2563 -1.3104 12.5198 16.3008 -7.8215 10.2751 15.271 -6.8048 -9.1498 2.7146 -3.6248 11.3079 17.493 -4.5022 7.8365 17.7293 -5.0827 -13.0379 7.9933 -3.8319 8.7545 16.7841 -0.5871 10.7679 21.7064 -3.7213 -9.0294 33.6512 21.3063 20.0309 -14.3957 39.8643 14.0503 -20.2544 51.6687 -0.0875 -0.0481 0.0042 3.9647 -3.2693 -25.3421 -0.0345 -0.0278 -0.3338 -6.2378 -0.2457 0.65 2.1188 -1.7756 -8.5377 -0.0033 -0.1012 -0.051 -0.5484 -0.0202 0.0748 0.0875 -0.0481 0.0042 -4.0618 -0.7316 -12.8835 0.0345 -0.0278 -0.334 -6.2378 0.2457 -0.6501 9.881 -3.2795 -2.855 0.0033 -0.1012 -0.051 -3.9702 -0.0065 -0.2278 
0.3892 -0.0556 0.7484 0.2083 -1.2745 -85.9111 -0.0004 -0.0364 0.0732 2.3977 0.7984 1.1556 -0.0005 -0.0033 0.0978 1.5009 -1.0982 1.2726 0 0 0 0 -0.0422 0.161 15.588 2.6569 9.2062 -8.5168 -1.8605 8.2294 0 -0.0436 0.0633 0 -0.0001 0 3.854 -0.0106 -0.3057 0 0 0.0001 3.8547 0.0054 0.1701 0 0 0.0001 -0.0184 -0.0573 0.1063 0.6565 -4.6251 -3.9359 -0.1356 -0.0037 -0.0169 36.0242 1.0885 -0.4061 -0.1336 0.0016 -0.153 -27.7618 -22.4572 54.1846 -0.1085 -0.1548 -0.1037 -30.2375 15.9121 10.5808 37.998 -24.2305 28.0354 41.4498 -17.9343 35.0613 48.1496 -17.4382 40.1643 21.5834 -26.2462 28.0114 41.3046 -31.8818 38.6754 38.9192 -31.7045 37.3529 25.9728 -36.0572 33.7293 48.5524 -42.2714 43.3162 46.1391 -43.1304 44.0159 3.4732 -30.6573 15.7761 23.9197 -36.8172 15.5794 28.4047 -40.7467 21.1481 -13.5872 -38.6782 -24.2253 16.0464 15.5162 -40.5498 10.5594 22.7 -51.9633 0.0184 -0.0573 0.1063 -0.3182 3.3025 -1.6525 0.1356 -0.0037 -0.0169 28.1664 31.767 -8.325 0.1336 0.0017 -0.1531 1.122 3.8925 -14.2114 0.1086 -0.1548 -0.1037 -11.7859 -59.9273 -7.4378 44.5099 24.1398 -34.3615 48.4972 17.1535 -42.0594 53.3343 16.4212 -45.541 -5.8257 3.2563 -1.3104 12.5198 16.3008 -7.8215 10.2751 15.271 -6.8048 -9.1498 2.7146 -3.6248 11.3079 17.493 -4.5022 7.8365 17.7293 -5.0827 -13.0379 7.9932 -3.8319 8.7545 16.7841 -0.5871 10.7679 21.7064 -3.7213 -9.0294 33.6512 21.3063 20.0309 -14.3957 39.8643 14.0503 -20.2544 51.6688 -0.0875 -0.0481 0.0042 2.7901 -1.7491 -25.1968 -0.0345 -0.0278 -0.3338 -2.3408 0.4698 0.2729 -0.0355 -2.0813 -8.2663 -0.0033 -0.1012 -0.051 -0.2742 -0.01 0.0374 0.0875 -0.0481 0.0042 -3.309 0.2575 -12.7447 0.0345 -0.0278 -0.334 -6.2378 0.2457 -0.65 10.7732 -3.3309 -2.7095 0.0033 -0.1012 -0.051 -4.8149 -0.0069 -0.2744 
0.3895 -0.054 0.7479 -0.3852 -0.8299 -85.523 -0.0004 -0.0364 0.0732 2.3477 0.7307 1.1623 -0.0005 -0.0033 0.0977 1.3822 -1.2789 1.2812 0 0 0 0 -0.0422 0.161 15.6376 2.7799 9.381 -8.0536 -1.5224 8.2485 0 -0.0436 0.0633 0 0 0 3.8789 -0.0145 -0.4205 0 0 0 3.8808 0.0015 0.0523 0 0 0 -0.0184 -0.0573 0.1063 0.65 -4.6248 -3.9077 -0.1356 -0.0037 -0.0169 35.9092 0.9136 -0.3202 -0.1336 0.0016 -0.153 -27.9468 -22.5138 54.3535 -0.1085 -0.1548 -0.1037 -29.2293 16.2167 9.6876 37.7521 -24.2018 27.7623 41.2455 -17.9318 34.8697 47.917 -17.4557 39.9462 21.4984 -26.1942 27.91 41.2281 -31.8651 38.5941 38.795 -31.6745 37.2217 25.9315 -36.038 33.6901 48.5133 -42.2628 43.276 46.0848 -43.1186 43.9609 3.3585 -30.5468 15.6845 23.8056 -36.716 15.4653 28.2295 -40.6256 20.973 -13.5871 -38.6783 -24.2253 16.0464 15.5163 -40.5498 10.5594 22.7 -51.9633 0.0184 -0.0573 0.1063 -0.3185 3.3024 -1.6338 0.1356 -0.0037 -0.0169 27.9534 31.4571 -8.9385 0.1336 0.0017 -0.1531 1.5236 3.9976 -13.5485 0.1086 -0.1548 -0.1037 -11.1871 -58.541 -7.3766 44.8224 24.1338 -34.6823 48.7707 17.1252 -42.3153 53.5957 16.3779 -45.7855 -5.9485 2.9996 -1.1226 12.3748 16.1602 -7.6604 10.0431 15.0346 -6.5483 -9.2904 2.4589 -3.5078 11.179 17.3136 -4.3625 7.6372 17.4509 -4.8758 -13.1714 7.7732 -3.7565 8.6392 16.5679 -0.4723 10.5941 21.4289 -3.5486 -9.0294 33.6512 21.3062 20.0309 -14.3957 39.8643 14.0502 -20.2544 51.6687 -0.0875 -0.0481 0.0042 2.261 -1.0292 -25.4009 -0.0345 -0.0278 -0.3338 -0.2443 0.846 0.0523 -1.3516 -2.1784 -8.3104 -0.0033 -0.1012 -0.051 -0.1371 -0.005 0.0187 0.0875 -0.0481 0.0042 -2.9493 0.7644 -13.0306 0.0345 -0.0279 -0.334 -6.2378 0.2457 -0.65 11.4343 -3.282 -2.7312 0.0033 -0.1012 -0.051 -5.3828 -0.0002 -0.3176 
0.3898 -0.0526 0.7477 -0.7044 -0.6002 -85.0692 -0.0004 -0.0364 0.0732 2.3137 0.6893 1.1603 -0.0005 -0.0033 0.0977 1.32 -1.3588 1.2796 0 0 0 0 -0.0422 0.161 15.6704 2.8111 9.3658 -7.8962 -1.4209 8.1518 0 -0.0436 0.0633 0 -0.0001 0 3.9095 -0.0167 -0.4836 0 0 0 3.9121 -0.0006 -0.0124 0 0 0.0001 -0.0184 -0.0573 0.1063 0.6478 -4.6249 -3.8976 -0.1356 -0.0037 -0.0169 35.8978 0.7317 -0.3335 -0.1336 0.0016 -0.153 -28.0272 -22.5027 54.3959 -0.1085 -0.1548 -0.1037 -28.8199 16.4795 9.2799 37.4167 -24.1674 27.406 40.9552 -17.9272 34.5974 47.6172 -17.4771 39.6649 21.4681 -26.1757 27.8741 41.2015 -31.8594 38.5659 38.7503 -31.6636 37.1744 25.9167 -36.0311 33.6761 48.4995 -42.2597 43.2617 46.0653 -43.1144 43.9411 3.3189 -30.5086 15.6529 23.7661 -36.6808 15.4257 28.1675 -40.5826 20.911 -13.5872 -38.6783 -24.2253 16.0464 15.5163 -40.5498 10.5594 22.7 -51.9633 0.0184 -0.0573 0.1063 -0.3177 3.3023 -1.6304 0.1356 -0.0037 -0.0169 27.8389 30.8813 -9.5388 0.1336 0.0017 -0.1531 1.7564 4.0611 -13.2837 0.1086 -0.1548 -0.1037 -10.6731 -57.4357 -7.5129 44.8429 24.1329 -34.7019 48.7895 17.1232 -42.3329 53.6111 16.3753 -45.8 -5.9538 2.9597 -1.0929 12.3657 16.1514 -7.6503 9.9988 14.9894 -6.4994 -9.3073 2.4226 -3.4908 11.1667 17.2963 -4.3491 7.5978 17.3957 -4.8349 -13.2023 7.724 -3.7397 8.612 16.5166 -0.4452 10.5465 21.3524 -3.5013 -9.0294 33.6512 21.3063 20.0309 -14.3957 39.8643 14.0503 -20.2544 51.6687 -0.0875 -0.0481 0.0042 1.8538 -0.6513 -25.6402 -0.0345 -0.0278 -0.3338 1.1645 1.0874 -0.1046 -2.1886 -2.2098 -8.3943 -0.0033 -0.1012 -0.051 -0.0686 -0.0025 0.0094 0.0875 -0.0481 0.0042 -2.8068 1.019 -13.3465 0.0345 -0.0279 -0.334 -6.2378 0.2457 -0.6501 11.9212 -3.1632 -2.787 0.0033 -0.1012 -0.051 -5.7845 0.0112 -0.3592 
